<?xml version="1.0" encoding="UTF-8"?>
<!DOCTYPE svg PUBLIC "-//W3C//DTD SVG 1.0//EN" "http://www.w3.org/TR/2001/REC-SVG-20010904/DTD/svg10.dtd">
<!-- Creator: CorelDRAW 2020 (64 Bit) -->
<svg xmlns="http://www.w3.org/2000/svg" xml:space="preserve" width="31.9101mm" height="38.1565mm" version="1.0" style="shape-rendering:geometricPrecision; text-rendering:geometricPrecision; image-rendering:optimizeQuality; fill-rule:evenodd; clip-rule:evenodd"
viewBox="0 0 8776.09 10494.01"
 xmlns:xlink="http://www.w3.org/1999/xlink"
 xmlns:xodm="http://www.corel.com/coreldraw/odm/2003">
 <defs>
  <style type="text/css">
   <![CDATA[
    .fil0 {fill:#343A85}
    .fil1 {fill:#E3411F}
    .fil2 {fill:#EAED01}
   ]]>
  </style>
 </defs>
 <g id="Camada_x0020_1">
  <metadata id="CorelCorpID_0Corel-Layer"/>
  <g id="_1277777928992">
   <path class="fil0" d="M0.3 1402.35c-10.15,230.25 252.89,928.87 362.7,1169.9 153.68,337.37 282.92,714.13 474.91,1095.56l333.03 715.31c104.56,2.26 584.13,-88.34 656.21,-119.09l1708.18 6229.6c567.35,12.32 2121.85,-307.42 2706.64,-510.61 139.58,-48.51 223.76,-96.18 368.89,-123.29l-62.76 -1076.2c-47.17,-294.19 -62.43,-785.69 -47.8,-1118.23 30.12,-683.82 367.98,-1229.23 738.31,-1700.73 157.09,-199.97 194.69,-191.12 360.34,-442.16 44.66,-67.68 108.72,-161.14 167.57,-219.36 61.72,-61 66.53,-45.63 118.01,-87.82l498.35 -508.05c269.94,-394.19 243.34,-502.31 303,-938.06 43.95,-320.76 62.07,-112.13 87.02,-678.76 64.63,-1467.87 -866.96,-2321.46 -2181.09,-2792.42 -332.31,-119.11 -682.26,-179.07 -1036.76,-241 -434.16,-75.8 -1114.6,-67.93 -1564.59,-22.88 -743.53,74.45 -1017.26,147.55 -1700.18,340.73 -823.29,232.89 -1066.99,374.97 -1745.56,724.55 -74.34,38.31 -542.19,251.81 -544.41,303z"/>
   <path class="fil1" d="M1382.88 1522.38l718.61 1654.53 793.59 -182.62 1784.53 6424.15 1390.5 -208.96 -353.33 -3234.82c152.23,-113.01 431.51,-246.4 593.45,-343.67 533.11,-320.18 1162.92,-862.29 1500.26,-1394.79 683.82,-1079.53 364.68,-2114.67 -399.03,-2733.67 -1208.82,-979.81 -3128.99,-1024.25 -4702.8,-578.82 -220.71,62.49 -549.97,140.98 -728.79,227.36 -130.58,63.12 -524.39,300.27 -597,371.31z"/>
   <path class="fil2" d="M5186.07 2785.35l346.45 2376.08c496.2,-33.86 1368.39,-700.63 1393.22,-1472.18 33.72,-1046.97 -1179.61,-1125.84 -1739.67,-903.9z"/>
  </g>
 </g>
</svg>
